<svg width="261" height="46" viewBox="0 0 261 46" fill="none" xmlns="http://www.w3.org/2000/svg">
<path d="M98.5092 18.23C98.6172 17.978 98.7792 17.771 98.9952 17.609C99.2292 17.447 99.4722 17.366 99.7242 17.366C99.9582 17.366 100.183 17.447 100.399 17.609C100.615 17.753 100.786 17.951 100.912 18.203C101.596 19.607 102.271 21.128 102.937 22.766C103.603 24.386 104.206 25.925 104.746 27.383C105.052 25.151 105.385 22.901 105.745 20.633C106.105 18.365 106.51 16.196 106.96 14.126C107.014 13.892 107.095 13.703 107.203 13.559C107.311 13.397 107.428 13.28 107.554 13.208C107.68 13.118 107.806 13.055 107.932 13.019C108.076 12.983 108.193 12.965 108.283 12.965C108.589 12.965 108.841 13.055 109.039 13.235C109.237 13.397 109.336 13.622 109.336 13.91C109.336 14.234 109.282 14.81 109.174 15.638C109.066 16.448 108.922 17.402 108.742 18.5C108.562 19.58 108.355 20.732 108.121 21.956C107.905 23.18 107.689 24.359 107.473 25.493C107.257 26.627 107.05 27.662 106.852 28.598C106.654 29.534 106.492 30.245 106.366 30.731C106.258 31.145 106.096 31.46 105.88 31.676C105.664 31.874 105.349 31.973 104.935 31.973C104.503 31.973 104.134 31.784 103.828 31.406C103.54 31.01 103.216 30.398 102.856 29.57C102.514 28.742 102.1 27.689 101.614 26.411C101.128 25.115 100.498 23.567 99.7242 21.767C98.9322 23.567 98.2842 25.115 97.7802 26.411C97.2942 27.707 96.8712 28.769 96.5112 29.597C96.1692 30.425 95.8452 31.037 95.5392 31.433C95.2332 31.811 94.8732 32 94.4592 32C93.7392 32 93.2622 31.586 93.0282 30.758C92.8842 30.272 92.7132 29.57 92.5152 28.652C92.3172 27.716 92.1102 26.681 91.8942 25.547C91.6962 24.413 91.4892 23.243 91.2732 22.037C91.0572 20.813 90.8682 19.661 90.7062 18.581C90.5442 17.501 90.4092 16.556 90.3012 15.746C90.2112 14.918 90.1662 14.342 90.1662 14.018C90.1662 13.712 90.2652 13.46 90.4632 13.262C90.6612 13.064 90.9402 12.965 91.3002 12.965C91.5522 12.965 91.7952 13.046 92.0292 13.208C92.2632 13.352 92.4342 13.658 92.5422 14.126C92.9742 16.196 93.3522 18.365 93.6762 20.633C94.0182 22.901 94.3782 25.151 94.7562 27.383C95.3142 26.069 95.8722 24.674 96.4302 23.198C96.9882 21.722 97.6812 20.066 98.5092 18.23ZM111.841 30.326C111.805 29.66 111.769 28.904 111.733 28.058C111.715 27.194 111.706 26.249 111.706 25.223C111.706 23.945 111.715 22.856 111.733 21.956C111.751 21.038 111.796 20.291 111.868 19.715C111.958 19.121 112.093 18.689 112.273 18.419C112.453 18.131 112.705 17.987 113.029 17.987C113.335 17.987 113.605 18.095 113.839 18.311C114.073 18.527 114.208 18.995 114.244 19.715C114.352 21.605 114.406 23.432 114.406 25.196C114.406 26.096 114.388 26.942 114.352 27.734C114.316 28.508 114.28 29.363 114.244 30.299C114.226 30.731 114.181 31.064 114.109 31.298C114.055 31.532 113.974 31.712 113.866 31.838C113.758 31.964 113.632 32.036 113.488 32.054C113.362 32.09 113.209 32.108 113.029 32.108C112.705 32.108 112.435 32 112.219 31.784C112.003 31.55 111.877 31.064 111.841 30.326ZM113.056 13.1C113.47 13.1 113.848 13.262 114.19 13.586C114.55 13.91 114.73 14.297 114.73 14.747C114.73 15.179 114.55 15.557 114.19 15.881C113.83 16.187 113.425 16.34 112.975 16.34C112.597 16.34 112.237 16.187 111.895 15.881C111.571 15.557 111.409 15.161 111.409 14.693C111.409 14.261 111.571 13.892 111.895 13.586C112.237 13.262 112.624 13.1 113.056 13.1ZM124.088 20.498C123.422 20.498 122.819 20.606 122.279 20.822C121.757 21.038 121.163 21.362 120.497 21.794C120.497 22.172 120.497 22.73 120.497 23.468C120.497 24.188 120.488 24.98 120.47 25.844C120.452 26.69 120.434 27.527 120.416 28.355C120.398 29.183 120.362 29.876 120.308 30.434C120.272 30.794 120.227 31.082 120.173 31.298C120.137 31.496 120.074 31.649 119.984 31.757C119.912 31.865 119.804 31.937 119.66 31.973C119.534 31.991 119.363 32 119.147 32C118.931 32 118.751 31.991 118.607 31.973C118.481 31.937 118.373 31.874 118.283 31.784C118.193 31.676 118.121 31.523 118.067 31.325C118.013 31.127 117.968 30.857 117.932 30.515C117.896 30.191 117.86 29.759 117.824 29.219C117.806 28.679 117.788 28.094 117.77 27.464C117.752 26.816 117.734 26.168 117.716 25.52C117.716 24.854 117.716 24.242 117.716 23.684C117.716 22.766 117.725 22.019 117.743 21.443C117.779 20.867 117.833 20.354 117.905 19.904C118.013 19.148 118.157 18.671 118.337 18.473C118.517 18.275 118.76 18.176 119.066 18.176C119.516 18.176 119.849 18.302 120.065 18.554C120.299 18.806 120.443 19.22 120.497 19.796C121.163 19.22 121.874 18.761 122.63 18.419C123.404 18.077 124.196 17.906 125.006 17.906C125.78 17.906 126.482 18.086 127.112 18.446C127.76 18.806 128.291 19.391 128.705 20.201C128.957 20.687 129.146 21.227 129.272 21.821C129.398 22.397 129.488 23.009 129.542 23.657C129.56 23.945 129.578 24.233 129.596 24.521C129.614 24.791 129.623 25.088 129.623 25.412C129.641 25.718 129.65 26.069 129.65 26.465C129.65 26.861 129.65 27.329 129.65 27.869C129.65 28.445 129.641 28.985 129.623 29.489C129.605 29.993 129.551 30.434 129.461 30.812C129.389 31.172 129.254 31.46 129.056 31.676C128.858 31.874 128.588 31.973 128.246 31.973C127.418 31.973 126.986 31.577 126.95 30.785C126.95 30.731 126.95 30.506 126.95 30.11C126.95 29.696 126.941 29.219 126.923 28.679C126.923 28.139 126.914 27.59 126.896 27.032C126.896 26.474 126.887 26.015 126.869 25.655C126.851 25.367 126.824 25.061 126.788 24.737C126.77 24.395 126.734 24.053 126.68 23.711C126.644 23.369 126.59 23.045 126.518 22.739C126.446 22.415 126.356 22.127 126.248 21.875C125.996 21.281 125.681 20.903 125.303 20.741C124.925 20.579 124.52 20.498 124.088 20.498ZM139.009 27.032C138.379 27.032 137.713 26.987 137.011 26.897C136.327 26.789 135.58 26.573 134.77 26.249C134.932 27.347 135.382 28.175 136.12 28.733C136.876 29.291 137.956 29.57 139.36 29.57C139.864 29.57 140.314 29.543 140.71 29.489C141.124 29.417 141.484 29.345 141.79 29.273C142.096 29.183 142.366 29.111 142.6 29.057C142.834 28.985 143.05 28.949 143.248 28.949C143.5 28.949 143.743 29.03 143.977 29.192C144.211 29.336 144.328 29.588 144.328 29.948C144.328 30.398 144.139 30.767 143.761 31.055C143.401 31.343 142.951 31.577 142.411 31.757C141.889 31.919 141.331 32.027 140.737 32.081C140.143 32.153 139.621 32.189 139.171 32.189C138.109 32.189 137.128 32.045 136.228 31.757C135.346 31.469 134.581 31.037 133.933 30.461C133.285 29.867 132.781 29.138 132.421 28.274C132.061 27.41 131.881 26.402 131.881 25.25C131.881 24.134 132.052 23.144 132.394 22.28C132.754 21.416 133.24 20.687 133.852 20.093C134.464 19.499 135.184 19.049 136.012 18.743C136.858 18.437 137.767 18.284 138.739 18.284C139.495 18.284 140.224 18.383 140.926 18.581C141.646 18.779 142.276 19.076 142.816 19.472C143.374 19.868 143.815 20.372 144.139 20.984C144.481 21.578 144.652 22.28 144.652 23.09C144.652 23.81 144.517 24.422 144.247 24.926C143.977 25.43 143.59 25.835 143.086 26.141C142.6 26.447 142.006 26.672 141.304 26.816C140.62 26.96 139.855 27.032 139.009 27.032ZM138.82 20.768C138.334 20.768 137.866 20.831 137.416 20.957C136.966 21.065 136.552 21.254 136.174 21.524C135.814 21.776 135.508 22.118 135.256 22.55C135.004 22.964 134.833 23.486 134.743 24.116C135.427 24.422 136.093 24.638 136.741 24.764C137.389 24.872 138.073 24.926 138.793 24.926C139.855 24.926 140.638 24.8 141.142 24.548C141.664 24.278 141.925 23.801 141.925 23.117C141.925 22.487 141.682 21.938 141.196 21.47C140.728 21.002 139.936 20.768 138.82 20.768ZM151.973 17.906C152.351 17.906 152.828 17.942 153.404 18.014C153.98 18.068 154.529 18.185 155.051 18.365C155.573 18.527 156.023 18.761 156.401 19.067C156.779 19.373 156.968 19.76 156.968 20.228C156.968 20.498 156.887 20.732 156.725 20.93C156.581 21.128 156.347 21.227 156.023 21.227C155.789 21.227 155.519 21.191 155.213 21.119C154.925 21.047 154.601 20.966 154.241 20.876C153.899 20.768 153.521 20.678 153.107 20.606C152.711 20.534 152.288 20.498 151.838 20.498C151.082 20.498 150.461 20.615 149.975 20.849C149.507 21.083 149.273 21.452 149.273 21.956C149.273 22.244 149.354 22.487 149.516 22.685C149.696 22.883 149.93 23.063 150.218 23.225C150.524 23.369 150.875 23.495 151.271 23.603C151.685 23.711 152.117 23.819 152.567 23.927C153.125 24.071 153.674 24.233 154.214 24.413C154.772 24.593 155.267 24.845 155.699 25.169C156.131 25.475 156.482 25.871 156.752 26.357C157.022 26.825 157.157 27.41 157.157 28.112C157.157 29.444 156.653 30.506 155.645 31.298C154.637 32.072 153.152 32.459 151.19 32.459C150.758 32.459 150.245 32.423 149.651 32.351C149.057 32.297 148.499 32.18 147.977 32C147.455 31.838 147.005 31.604 146.627 31.298C146.267 30.974 146.087 30.551 146.087 30.029C146.087 29.669 146.168 29.399 146.33 29.219C146.51 29.021 146.726 28.922 146.978 28.922C147.176 28.922 147.383 28.985 147.599 29.111C147.815 29.237 148.076 29.372 148.382 29.516C148.688 29.66 149.057 29.795 149.489 29.921C149.921 30.047 150.452 30.11 151.082 30.11C151.316 30.11 151.622 30.101 152 30.083C152.378 30.047 152.747 29.966 153.107 29.84C153.485 29.714 153.8 29.543 154.052 29.327C154.322 29.093 154.457 28.769 154.457 28.355C154.457 28.031 154.367 27.761 154.187 27.545C154.007 27.311 153.764 27.113 153.458 26.951C153.152 26.789 152.792 26.654 152.378 26.546C151.982 26.42 151.559 26.294 151.109 26.168C150.587 26.024 150.056 25.862 149.516 25.682C148.994 25.502 148.517 25.268 148.085 24.98C147.653 24.692 147.302 24.332 147.032 23.9C146.762 23.45 146.627 22.901 146.627 22.253C146.627 21.641 146.753 21.074 147.005 20.552C147.257 20.012 147.617 19.544 148.085 19.148C148.553 18.752 149.111 18.446 149.759 18.23C150.425 18.014 151.163 17.906 151.973 17.906ZM171.52 18.311C172.546 18.311 173.464 18.473 174.274 18.797C175.084 19.103 175.768 19.544 176.326 20.12C176.902 20.696 177.343 21.398 177.649 22.226C177.955 23.054 178.108 23.981 178.108 25.007C178.108 26.141 177.928 27.158 177.568 28.058C177.226 28.958 176.74 29.723 176.11 30.353C175.498 30.983 174.76 31.469 173.896 31.811C173.05 32.153 172.123 32.324 171.115 32.324C170.017 32.324 169.045 32.135 168.199 31.757C167.371 31.379 166.669 30.866 166.093 30.218C165.535 29.57 165.112 28.823 164.824 27.977C164.536 27.131 164.392 26.24 164.392 25.304C164.392 24.278 164.554 23.342 164.878 22.496C165.22 21.632 165.697 20.894 166.309 20.282C166.939 19.652 167.695 19.166 168.577 18.824C169.459 18.482 170.44 18.311 171.52 18.311ZM171.223 29.84C171.961 29.84 172.591 29.714 173.113 29.462C173.635 29.192 174.058 28.841 174.382 28.409C174.724 27.977 174.967 27.491 175.111 26.951C175.273 26.393 175.354 25.817 175.354 25.223C175.354 24.611 175.273 24.044 175.111 23.522C174.967 22.982 174.733 22.514 174.409 22.118C174.103 21.722 173.698 21.416 173.194 21.2C172.708 20.966 172.123 20.849 171.439 20.849C170.737 20.849 170.125 20.966 169.603 21.2C169.081 21.434 168.64 21.758 168.28 22.172C167.938 22.568 167.677 23.045 167.497 23.603C167.317 24.161 167.227 24.764 167.227 25.412C167.227 26.726 167.56 27.797 168.226 28.625C168.91 29.435 169.909 29.84 171.223 29.84ZM181.171 21.038C180.973 21.056 180.775 21.074 180.577 21.092C180.397 21.092 180.217 21.092 180.037 21.092C179.443 21.092 179.002 21.002 178.714 20.822C178.408 20.624 178.255 20.255 178.255 19.715C178.255 19.301 178.372 18.977 178.606 18.743C178.822 18.491 179.263 18.365 179.929 18.365C180.343 18.365 180.766 18.392 181.198 18.446V16.88C181.198 16.16 181.279 15.476 181.441 14.828C181.603 14.18 181.855 13.613 182.197 13.127C182.539 12.623 182.98 12.227 183.52 11.939C184.078 11.633 184.753 11.48 185.545 11.48C186.265 11.48 186.769 11.588 187.057 11.804C187.345 12.002 187.489 12.335 187.489 12.803C187.489 13.271 187.3 13.559 186.922 13.667C186.544 13.775 186.112 13.829 185.626 13.829C185.032 13.829 184.582 14.09 184.276 14.612C183.988 15.134 183.844 15.773 183.844 16.529V18.419C184.078 18.365 184.303 18.338 184.519 18.338C184.753 18.32 184.996 18.311 185.248 18.311C185.914 18.311 186.382 18.419 186.652 18.635C186.94 18.851 187.084 19.193 187.084 19.661C187.084 20.255 186.895 20.642 186.517 20.822C186.139 20.984 185.635 21.065 185.005 21.065C184.843 21.065 184.654 21.065 184.438 21.065C184.24 21.065 184.042 21.047 183.844 21.011V30.299C183.844 30.731 183.808 31.064 183.736 31.298C183.664 31.532 183.565 31.712 183.439 31.838C183.313 31.964 183.169 32.036 183.007 32.054C182.845 32.09 182.674 32.108 182.494 32.108C182.332 32.108 182.17 32.081 182.008 32.027C181.846 31.991 181.702 31.91 181.576 31.784C181.468 31.64 181.369 31.451 181.279 31.217C181.207 30.983 181.171 30.686 181.171 30.326V21.038ZM204.604 15.584C204.1 15.62 203.56 15.647 202.984 15.665C202.426 15.683 201.805 15.701 201.121 15.719C201.139 16.205 201.157 16.664 201.175 17.096C201.193 17.51 201.211 17.933 201.229 18.365C201.247 18.797 201.256 19.247 201.256 19.715C201.274 20.183 201.283 20.705 201.283 21.281C201.283 22.091 201.283 22.874 201.283 23.63C201.283 24.368 201.274 25.115 201.256 25.871C201.238 26.609 201.22 27.356 201.202 28.112C201.184 28.868 201.157 29.651 201.121 30.461C201.103 30.893 201.058 31.226 200.986 31.46C200.932 31.694 200.851 31.874 200.743 32C200.635 32.126 200.509 32.198 200.365 32.216C200.221 32.252 200.059 32.27 199.879 32.27C199.555 32.27 199.276 32.162 199.042 31.946C198.826 31.712 198.7 31.226 198.664 30.488C198.628 29.84 198.601 29.156 198.583 28.436C198.583 27.716 198.574 26.942 198.556 26.114C198.538 25.286 198.529 24.395 198.529 23.441C198.529 22.469 198.529 21.398 198.529 20.228C198.529 19.238 198.529 18.374 198.529 17.636C198.547 16.898 198.574 16.259 198.61 15.719H197.503C196.747 15.719 196.099 15.71 195.559 15.692C195.037 15.674 194.605 15.629 194.263 15.557C193.921 15.467 193.669 15.332 193.507 15.152C193.363 14.972 193.291 14.72 193.291 14.396C193.291 14.234 193.309 14.09 193.345 13.964C193.381 13.82 193.462 13.694 193.588 13.586C193.714 13.46 193.885 13.361 194.101 13.289C194.335 13.217 194.632 13.163 194.992 13.127C195.334 13.109 195.64 13.091 195.91 13.073C196.18 13.055 196.45 13.037 196.72 13.019C196.99 13.001 197.269 12.992 197.557 12.992C197.845 12.992 198.178 12.992 198.556 12.992C199.618 12.992 200.617 13.001 201.553 13.019C202.507 13.037 203.515 13.073 204.577 13.127C205.009 13.163 205.342 13.217 205.576 13.289C205.81 13.343 205.99 13.424 206.116 13.532C206.242 13.64 206.314 13.766 206.332 13.91C206.368 14.054 206.386 14.216 206.386 14.396C206.386 14.72 206.269 14.99 206.035 15.206C205.819 15.422 205.342 15.548 204.604 15.584ZM212.389 27.032C211.759 27.032 211.093 26.987 210.391 26.897C209.707 26.789 208.96 26.573 208.15 26.249C208.312 27.347 208.762 28.175 209.5 28.733C210.256 29.291 211.336 29.57 212.74 29.57C213.244 29.57 213.694 29.543 214.09 29.489C214.504 29.417 214.864 29.345 215.17 29.273C215.476 29.183 215.746 29.111 215.98 29.057C216.214 28.985 216.43 28.949 216.628 28.949C216.88 28.949 217.123 29.03 217.357 29.192C217.591 29.336 217.708 29.588 217.708 29.948C217.708 30.398 217.519 30.767 217.141 31.055C216.781 31.343 216.331 31.577 215.791 31.757C215.269 31.919 214.711 32.027 214.117 32.081C213.523 32.153 213.001 32.189 212.551 32.189C211.489 32.189 210.508 32.045 209.608 31.757C208.726 31.469 207.961 31.037 207.313 30.461C206.665 29.867 206.161 29.138 205.801 28.274C205.441 27.41 205.261 26.402 205.261 25.25C205.261 24.134 205.432 23.144 205.774 22.28C206.134 21.416 206.62 20.687 207.232 20.093C207.844 19.499 208.564 19.049 209.392 18.743C210.238 18.437 211.147 18.284 212.119 18.284C212.875 18.284 213.604 18.383 214.306 18.581C215.026 18.779 215.656 19.076 216.196 19.472C216.754 19.868 217.195 20.372 217.519 20.984C217.861 21.578 218.032 22.28 218.032 23.09C218.032 23.81 217.897 24.422 217.627 24.926C217.357 25.43 216.97 25.835 216.466 26.141C215.98 26.447 215.386 26.672 214.684 26.816C214 26.96 213.235 27.032 212.389 27.032ZM212.2 20.768C211.714 20.768 211.246 20.831 210.796 20.957C210.346 21.065 209.932 21.254 209.554 21.524C209.194 21.776 208.888 22.118 208.636 22.55C208.384 22.964 208.213 23.486 208.123 24.116C208.807 24.422 209.473 24.638 210.121 24.764C210.769 24.872 211.453 24.926 212.173 24.926C213.235 24.926 214.018 24.8 214.522 24.548C215.044 24.278 215.305 23.801 215.305 23.117C215.305 22.487 215.062 21.938 214.576 21.47C214.108 21.002 213.316 20.768 212.2 20.768ZM225.758 27.302C224.948 28.148 224.255 28.877 223.679 29.489C223.121 30.083 222.644 30.578 222.248 30.974C221.852 31.352 221.519 31.631 221.249 31.811C220.997 31.991 220.763 32.081 220.547 32.081C220.295 32.081 220.043 31.973 219.791 31.757C219.557 31.541 219.44 31.307 219.44 31.055C219.44 30.839 219.593 30.515 219.899 30.083C220.205 29.633 220.583 29.138 221.033 28.598C221.483 28.058 221.969 27.5 222.491 26.924C223.013 26.33 223.49 25.772 223.922 25.25C223.346 24.584 222.797 23.936 222.275 23.306C221.771 22.676 221.33 22.091 220.952 21.551C220.574 21.011 220.268 20.534 220.034 20.12C219.818 19.706 219.71 19.382 219.71 19.148C219.71 18.914 219.827 18.716 220.061 18.554C220.295 18.374 220.511 18.284 220.709 18.284C220.871 18.284 221.15 18.464 221.546 18.824C221.942 19.166 222.383 19.589 222.869 20.093C223.373 20.579 223.877 21.101 224.381 21.659C224.903 22.217 225.371 22.712 225.785 23.144C226.181 22.712 226.622 22.226 227.108 21.686C227.612 21.128 228.107 20.606 228.593 20.12C229.079 19.634 229.529 19.22 229.943 18.878C230.357 18.536 230.681 18.365 230.915 18.365C231.113 18.365 231.311 18.437 231.509 18.581C231.707 18.725 231.806 18.914 231.806 19.148C231.806 19.382 231.689 19.706 231.455 20.12C231.239 20.534 230.942 21.011 230.564 21.551C230.186 22.091 229.736 22.676 229.214 23.306C228.71 23.936 228.17 24.584 227.594 25.25C228.044 25.754 228.53 26.303 229.052 26.897C229.574 27.473 230.06 28.04 230.51 28.598C230.96 29.138 231.329 29.633 231.617 30.083C231.923 30.515 232.076 30.839 232.076 31.055C232.076 31.307 231.95 31.541 231.698 31.757C231.464 31.973 231.221 32.081 230.969 32.081C230.735 32.081 230.42 31.937 230.024 31.649C229.646 31.343 229.214 30.965 228.728 30.515C228.26 30.047 227.765 29.534 227.243 28.976C226.739 28.4 226.244 27.842 225.758 27.302ZM245.329 32.108C245.041 32.108 244.807 32.063 244.627 31.973C244.465 31.865 244.339 31.73 244.249 31.568C244.159 31.406 244.096 31.217 244.06 31.001C244.024 30.767 243.997 30.524 243.979 30.272C243.529 30.83 242.944 31.298 242.224 31.676C241.522 32.054 240.622 32.243 239.524 32.243C238.822 32.243 238.102 32.144 237.364 31.946C236.644 31.73 235.987 31.37 235.393 30.866C234.799 30.344 234.313 29.651 233.935 28.787C233.557 27.923 233.368 26.834 233.368 25.52C233.368 24.494 233.494 23.531 233.746 22.631C233.998 21.731 234.376 20.948 234.88 20.282C235.402 19.598 236.05 19.058 236.824 18.662C237.598 18.266 238.507 18.068 239.551 18.068C240.469 18.068 241.288 18.239 242.008 18.581C242.728 18.905 243.376 19.445 243.952 20.201C243.952 19.985 243.961 19.769 243.979 19.553C243.997 19.319 244.042 19.112 244.114 18.932C244.204 18.734 244.339 18.581 244.519 18.473C244.699 18.347 244.942 18.284 245.248 18.284C245.518 18.284 245.77 18.392 246.004 18.608C246.238 18.824 246.373 19.292 246.409 20.012C246.463 20.966 246.499 21.821 246.517 22.577C246.553 23.333 246.571 24.116 246.571 24.926C246.571 25.916 246.562 26.825 246.544 27.653C246.526 28.481 246.481 29.363 246.409 30.299C246.373 30.713 246.319 31.046 246.247 31.298C246.193 31.532 246.121 31.712 246.031 31.838C245.941 31.946 245.833 32.018 245.707 32.054C245.581 32.09 245.455 32.108 245.329 32.108ZM243.871 25.25C243.871 24.314 243.727 23.549 243.439 22.955C243.169 22.361 242.818 21.902 242.386 21.578C241.972 21.236 241.522 21.002 241.036 20.876C240.55 20.75 240.1 20.687 239.686 20.687C239.038 20.687 238.48 20.804 238.012 21.038C237.562 21.272 237.193 21.596 236.905 22.01C236.617 22.406 236.401 22.883 236.257 23.441C236.131 23.981 236.068 24.575 236.068 25.223C236.068 26.807 236.41 27.977 237.094 28.733C237.796 29.489 238.741 29.867 239.929 29.867C240.631 29.867 241.225 29.75 241.711 29.516C242.215 29.264 242.62 28.931 242.926 28.517C243.25 28.103 243.484 27.617 243.628 27.059C243.79 26.483 243.871 25.88 243.871 25.25ZM254.489 17.906C254.867 17.906 255.344 17.942 255.92 18.014C256.496 18.068 257.045 18.185 257.567 18.365C258.089 18.527 258.539 18.761 258.917 19.067C259.295 19.373 259.484 19.76 259.484 20.228C259.484 20.498 259.403 20.732 259.241 20.93C259.097 21.128 258.863 21.227 258.539 21.227C258.305 21.227 258.035 21.191 257.729 21.119C257.441 21.047 257.117 20.966 256.757 20.876C256.415 20.768 256.037 20.678 255.623 20.606C255.227 20.534 254.804 20.498 254.354 20.498C253.598 20.498 252.977 20.615 252.491 20.849C252.023 21.083 251.789 21.452 251.789 21.956C251.789 22.244 251.87 22.487 252.032 22.685C252.212 22.883 252.446 23.063 252.734 23.225C253.04 23.369 253.391 23.495 253.787 23.603C254.201 23.711 254.633 23.819 255.083 23.927C255.641 24.071 256.19 24.233 256.73 24.413C257.288 24.593 257.783 24.845 258.215 25.169C258.647 25.475 258.998 25.871 259.268 26.357C259.538 26.825 259.673 27.41 259.673 28.112C259.673 29.444 259.169 30.506 258.161 31.298C257.153 32.072 255.668 32.459 253.706 32.459C253.274 32.459 252.761 32.423 252.167 32.351C251.573 32.297 251.015 32.18 250.493 32C249.971 31.838 249.521 31.604 249.143 31.298C248.783 30.974 248.603 30.551 248.603 30.029C248.603 29.669 248.684 29.399 248.846 29.219C249.026 29.021 249.242 28.922 249.494 28.922C249.692 28.922 249.899 28.985 250.115 29.111C250.331 29.237 250.592 29.372 250.898 29.516C251.204 29.66 251.573 29.795 252.005 29.921C252.437 30.047 252.968 30.11 253.598 30.11C253.832 30.11 254.138 30.101 254.516 30.083C254.894 30.047 255.263 29.966 255.623 29.84C256.001 29.714 256.316 29.543 256.568 29.327C256.838 29.093 256.973 28.769 256.973 28.355C256.973 28.031 256.883 27.761 256.703 27.545C256.523 27.311 256.28 27.113 255.974 26.951C255.668 26.789 255.308 26.654 254.894 26.546C254.498 26.42 254.075 26.294 253.625 26.168C253.103 26.024 252.572 25.862 252.032 25.682C251.51 25.502 251.033 25.268 250.601 24.98C250.169 24.692 249.818 24.332 249.548 23.9C249.278 23.45 249.143 22.901 249.143 22.253C249.143 21.641 249.269 21.074 249.521 20.552C249.773 20.012 250.133 19.544 250.601 19.148C251.069 18.752 251.627 18.446 252.275 18.23C252.941 18.014 253.679 17.906 254.489 17.906Z" fill="#FF0330"/>
<mask id="path-2-inside-1_2_21" fill="white">
<path d="M88.3703 0.410366C85.1631 -0.461436 81.2792 0.185483 78.1562 1.14217C72.1909 3.05587 67.0984 7.10782 61.5551 10.0059C58.6283 11.244 54.6041 11.4973 51.9031 9.80878C51.2562 9.34954 50.0837 9.67757 50.0837 9.67757C49.7087 9.39655 49.2884 9.28935 48.7798 9.47095C47.4291 10.4564 46.022 8.93664 44.5878 9.72457C43.1533 8.93664 41.7465 10.4564 40.3958 9.47095C39.8869 9.28935 39.4669 9.39655 39.0919 9.67757C39.0919 9.67757 37.9188 9.34954 37.2718 9.80878C34.5712 11.4973 30.5473 11.244 27.6208 10.0059C22.0769 7.10782 16.9847 3.05587 11.0194 1.14217C7.89604 0.185483 4.0125 -0.461436 0.80496 0.410366C0.382924 0.691723 -0.0959219 1.19864 0.0166886 1.81749C0.24191 2.18339 0.467462 2.68997 0.945634 2.77451C12.4265 1.05796 18.6164 12.4539 28.24 15.4647C28.2586 15.5867 27.6959 16.0555 27.0858 16.3838C25.726 17.1346 23.7092 16.8434 23.5689 18.7006C23.9344 19.8548 25.3412 20.2768 26.3544 20.7266C28.7462 22.0783 31.617 20.9525 33.7829 19.8548C34.0359 19.6012 34.4583 19.7418 34.6547 19.9955C34.486 25.2016 38.4537 28.6628 39.1852 33.5023C39.6076 35.7535 38.2004 37.4129 38.0317 39.5238C38.0131 40.3026 38.6225 39.7869 38.9508 42.3657C39.0919 42.8348 40.2643 44.1482 41.3241 44.7011C42.3024 45.0866 43.4363 45.1989 44.5878 45.1688C45.7389 45.1989 46.8728 45.0866 47.8511 44.7011C48.911 44.1482 50.0837 42.8348 50.2234 42.3657C50.5528 39.7869 51.1622 40.3026 51.1436 39.5238C50.9745 37.4129 49.5677 35.7535 49.9897 33.5023C50.7215 28.6628 54.6889 25.2016 54.5198 19.9955C54.7173 19.7418 55.1397 19.6012 55.3927 19.8548C57.5586 20.9525 60.4287 22.0783 62.8212 20.7266C63.8341 20.2768 65.2408 19.8548 65.6067 18.7006C65.4657 16.8434 63.4489 17.1346 62.0898 16.3838C61.4794 16.0555 60.9167 15.5867 60.9349 15.4647C70.5589 12.4539 76.7494 1.05796 88.23 2.77451C88.7081 2.68997 88.9334 2.18339 89.1579 1.81749C89.2671 1.19931 88.7893 0.692399 88.3673 0.411042"/>
</mask>
<path d="M78.1562 1.14217L77.8507 0.189881L77.8633 0.186022L78.1562 1.14217ZM61.5551 10.0059L62.0184 10.8921L61.9823 10.911L61.9447 10.9269L61.5551 10.0059ZM51.9031 9.80878L51.373 10.6567L51.3481 10.6412L51.3242 10.6242L51.9031 9.80878ZM50.0837 9.67757L50.3532 10.6406L49.8785 10.7734L49.4841 10.4778L50.0837 9.67757ZM48.7798 9.47095L48.1904 8.6631L48.3072 8.57783L48.4435 8.52918L48.7798 9.47095ZM44.5878 9.72457L45.0693 10.601L44.5879 10.8655L44.1064 10.6011L44.5878 9.72457ZM40.3958 9.47095L40.7319 8.52911L40.8683 8.57776L40.9852 8.6631L40.3958 9.47095ZM39.0919 9.67757L39.6915 10.4778L39.2972 10.7733L38.8226 10.6406L39.0919 9.67757ZM37.2718 9.80878L37.8507 10.6242L37.8268 10.6412L37.802 10.6567L37.2718 9.80878ZM27.6208 10.0059L27.2312 10.9269L27.1937 10.911L27.1575 10.8921L27.6208 10.0059ZM11.0194 1.14217L11.3123 0.18593L11.3249 0.189964L11.0194 1.14217ZM0.80496 0.410366L0.25026 -0.421685L0.385653 -0.511947L0.542678 -0.554626L0.80496 0.410366ZM0.0166886 1.81749L-0.834916 2.34167L-0.933489 2.18153L-0.967155 1.99652L0.0166886 1.81749ZM0.945634 2.77451L1.0935 3.76352L0.932168 3.78764L0.771531 3.75924L0.945634 2.77451ZM28.24 15.4647L28.5386 14.5103L29.1345 14.6967L29.2286 15.3141L28.24 15.4647ZM27.0858 16.3838L26.6025 15.5083L26.6119 15.5033L27.0858 16.3838ZM23.5689 18.7006L22.6155 19.0026L22.5571 18.8182L22.5717 18.6253L23.5689 18.7006ZM26.3544 20.7266L26.7601 19.8126L26.8043 19.8322L26.8463 19.856L26.3544 20.7266ZM33.7829 19.8548L34.491 20.561L34.3779 20.6744L34.235 20.7468L33.7829 19.8548ZM34.6547 19.9955L35.4453 19.3831L35.6659 19.6678L35.6542 20.0279L34.6547 19.9955ZM39.1852 33.5023L38.2023 33.6867L38.1991 33.6693L38.1964 33.6518L39.1852 33.5023ZM38.0317 39.5238L37.032 39.4999L37.0327 39.4719L37.0349 39.4441L38.0317 39.5238ZM38.9508 42.3657L37.9932 42.6537L37.9693 42.5743L37.9589 42.492L38.9508 42.3657ZM41.3241 44.7011L40.9575 45.6315L40.9084 45.6122L40.8616 45.5877L41.3241 44.7011ZM44.5878 45.1688L44.5617 44.1692L44.5878 44.1685L44.6139 44.1692L44.5878 45.1688ZM47.8511 44.7011L48.3137 45.5877L48.2669 45.6122L48.2178 45.6315L47.8511 44.7011ZM50.2234 42.3657L51.2153 42.4924L51.205 42.5731L51.1818 42.6511L50.2234 42.3657ZM51.1436 39.5238L52.1404 39.4439L52.1426 39.4719L52.1433 39.4999L51.1436 39.5238ZM49.9897 33.5023L50.9785 33.6518L50.9759 33.6692L50.9726 33.6866L49.9897 33.5023ZM54.5198 19.9955L53.5204 20.0279L53.5086 19.6665L53.7308 19.3811L54.5198 19.9955ZM55.3927 19.8548L54.9406 20.7468L54.7977 20.6744L54.6846 20.561L55.3927 19.8548ZM62.8212 20.7266L62.3294 19.8559L62.3713 19.8322L62.4154 19.8127L62.8212 20.7266ZM65.6067 18.7006L66.6039 18.6249L66.6185 18.8181L66.56 19.0028L65.6067 18.7006ZM62.0898 16.3838L62.5636 15.5031L62.5733 15.5085L62.0898 16.3838ZM60.9349 15.4647L59.9459 15.3167L60.0386 14.6973L60.6364 14.5103L60.9349 15.4647ZM88.23 2.77451L88.4041 3.75924L88.2434 3.78764L88.0821 3.76352L88.23 2.77451ZM89.1579 1.81749L90.1426 1.99149L90.1096 2.17859L90.0102 2.34053L89.1579 1.81749ZM88.108 1.37535C85.1767 0.578546 81.515 1.15913 78.4491 2.09831L77.8633 0.186022C81.0435 -0.788164 85.1495 -1.50142 88.6326 -0.554619L88.108 1.37535ZM78.4617 2.09437C75.5896 3.01575 72.9035 4.45989 70.209 6.06414C67.5469 7.64907 64.8216 9.42659 62.0184 10.8921L61.0918 9.11974C63.8319 7.68716 66.4245 5.98965 69.1858 4.34565C71.9147 2.72097 74.7575 1.18228 77.8508 0.189964L78.4617 2.09437ZM61.9447 10.9269C58.8422 12.2393 54.4479 12.579 51.373 10.6567L52.4332 8.96083C54.7602 10.4156 58.4143 10.2487 61.1656 9.08494L61.9447 10.9269ZM51.3242 10.6242C51.3244 10.6243 51.315 10.6177 51.2903 10.6085C51.2653 10.5991 51.229 10.5889 51.1798 10.5807C51.0782 10.5635 50.953 10.5598 50.8165 10.5688C50.6827 10.5776 50.5597 10.5971 50.4698 10.6147C50.4257 10.6234 50.3916 10.6312 50.3708 10.6363C50.3605 10.6388 50.3535 10.6406 50.3504 10.6414C50.3489 10.6418 50.3483 10.6419 50.3487 10.6418C50.3489 10.6418 50.3494 10.6416 50.3502 10.6414C50.3505 10.6413 50.351 10.6412 50.3515 10.6411C50.3517 10.641 50.352 10.6409 50.3523 10.6408C50.3524 10.6408 50.3526 10.6407 50.3527 10.6407C50.3529 10.6407 50.3532 10.6406 50.0837 9.67757C49.8143 8.71455 49.8145 8.71448 49.8148 8.71441C49.8149 8.71439 49.8151 8.71432 49.8153 8.71427C49.8157 8.71417 49.816 8.71407 49.8164 8.71396C49.8172 8.71374 49.8181 8.7135 49.819 8.71324C49.8209 8.71273 49.8231 8.71213 49.8255 8.71147C49.8304 8.71014 49.8365 8.70851 49.8437 8.70663C49.8581 8.70286 49.877 8.69805 49.8999 8.69248C49.9458 8.68138 50.0084 8.66715 50.0843 8.65224C50.2344 8.62276 50.4449 8.58892 50.6852 8.57312C51.1114 8.54508 51.8648 8.55522 52.4819 8.99335L51.3242 10.6242ZM49.4841 10.4778C49.3915 10.4084 49.3336 10.3902 49.3028 10.3846C49.2773 10.38 49.2229 10.3746 49.116 10.4127L48.4435 8.52918C49.3096 8.21995 50.0772 8.42306 50.6834 8.87731L49.4841 10.4778ZM49.3692 10.2788C48.2913 11.0652 47.1703 10.8 46.4945 10.6472C45.7127 10.4704 45.3982 10.4203 45.0693 10.601L44.1063 8.84814C45.2116 8.24086 46.3177 8.55671 46.9357 8.69645C47.6596 8.86016 47.9176 8.86212 48.1904 8.6631L49.3692 10.2788ZM44.1064 10.6011C43.7773 10.4203 43.4626 10.4704 42.6809 10.6472C42.0052 10.8 40.8843 11.0652 39.8064 10.2788L40.9852 8.6631C41.258 8.86212 41.5159 8.86016 42.2398 8.69645C42.8578 8.55669 43.9638 8.2409 45.0692 8.84809L44.1064 10.6011ZM40.0598 10.4128C39.9526 10.3745 39.8981 10.38 39.8727 10.3846C39.8421 10.3902 39.7842 10.4084 39.6915 10.4778L38.4922 8.87731C39.0985 8.42304 39.8656 8.22001 40.7319 8.52911L40.0598 10.4128ZM39.0919 9.67757C38.8226 10.6406 38.8228 10.6407 38.823 10.6408C38.8231 10.6408 38.8233 10.6408 38.8235 10.6409C38.8238 10.641 38.824 10.641 38.8243 10.6411C38.8248 10.6412 38.8252 10.6414 38.8256 10.6415C38.8263 10.6417 38.8268 10.6418 38.827 10.6419C38.8274 10.642 38.8269 10.6418 38.8253 10.6414C38.8222 10.6406 38.8152 10.6388 38.8049 10.6363C38.784 10.6312 38.75 10.6234 38.7058 10.6148C38.6158 10.5971 38.4927 10.5776 38.3588 10.5688C38.2222 10.5598 38.0969 10.5635 37.9951 10.5807C37.9459 10.589 37.9096 10.5992 37.8846 10.6085C37.8599 10.6177 37.8505 10.6244 37.8507 10.6242L36.693 8.99335C37.3102 8.55519 38.0638 8.54509 38.4901 8.57312C38.7304 8.58892 38.941 8.62275 39.0911 8.65222C39.167 8.66713 39.2297 8.68136 39.2755 8.69245C39.2985 8.69801 39.3174 8.70283 39.3318 8.70659C39.339 8.70847 39.345 8.7101 39.35 8.71143C39.3524 8.7121 39.3546 8.71269 39.3564 8.7132C39.3574 8.71346 39.3582 8.7137 39.359 8.71392C39.3594 8.71403 39.3598 8.71413 39.3601 8.71423C39.3603 8.71428 39.3606 8.71435 39.3607 8.71437C39.3609 8.71444 39.3612 8.71451 39.0919 9.67757ZM37.802 10.6567C34.7274 12.579 30.3334 12.2393 27.2312 10.9269L28.0104 9.08495C30.7613 10.2487 34.415 10.4155 36.7417 8.96086L37.802 10.6567ZM27.1575 10.8921C24.354 9.4266 21.6287 7.64909 18.9665 6.06414C16.272 4.45989 13.586 3.01575 10.7139 2.09437L11.3249 0.189964C14.4181 1.18228 17.2608 2.72097 19.9897 4.34565C22.7509 5.98963 25.3437 7.68715 28.0841 9.11972L27.1575 10.8921ZM10.7265 2.09832C7.66029 1.15913 3.9989 0.57854 1.06724 1.37536L0.542678 -0.554626C4.0261 -1.50141 8.13179 -0.788165 11.3123 0.186013L10.7265 2.09832ZM1.35966 1.24242C1.2225 1.33386 1.10802 1.44292 1.04417 1.53938C1.01485 1.58366 1.00477 1.61237 1.00162 1.62464C0.999404 1.6333 0.999903 1.635 1.00053 1.63846L-0.967155 1.99652C-1.08145 1.36843 -0.883334 0.82784 -0.623505 0.435356C-0.37058 0.0533015 -0.0346163 -0.231767 0.25026 -0.421685L1.35966 1.24242ZM0.868293 1.2933C0.903087 1.34983 0.936411 1.40666 0.965034 1.45564C0.995324 1.50747 1.02053 1.5508 1.04662 1.5942C1.09899 1.6813 1.13797 1.73975 1.17144 1.78219C1.23898 1.86781 1.21976 1.80747 1.11974 1.78978L0.771531 3.75924C0.193332 3.65701 -0.17775 3.30111 -0.398834 3.02083C-0.590372 2.77801 -0.778114 2.43395 -0.834916 2.34167L0.868293 1.2933ZM0.797763 1.78551C6.94028 0.867113 11.6354 3.48672 15.8732 6.53507C16.9326 7.29709 17.9772 8.09649 19.0062 8.877C20.0403 9.66129 21.0623 10.4293 22.0995 11.1485C24.1758 12.5879 26.2714 13.801 28.5386 14.5103L27.9414 16.4191C25.3968 15.623 23.1098 14.2825 20.96 12.7921C19.8843 12.0463 18.8324 11.2553 17.7976 10.4705C16.7579 9.68186 15.7387 8.90202 14.7053 8.15865C10.5721 5.18547 6.43185 2.96536 1.0935 3.76352L0.797763 1.78551ZM29.2286 15.3141C29.2864 15.6934 29.116 15.9761 29.0826 16.033C29.02 16.1393 28.9483 16.2251 28.8963 16.2829C28.7878 16.4033 28.6559 16.5206 28.5273 16.6246C28.2649 16.8367 27.92 17.0705 27.5598 17.2644L26.6119 15.5033C26.8617 15.3688 27.1032 15.2041 27.27 15.0692C27.356 14.9996 27.3994 14.9564 27.4103 14.9443C27.4179 14.9358 27.392 14.9624 27.359 15.0185C27.3421 15.0472 27.3101 15.1057 27.2838 15.1885C27.2591 15.2662 27.2217 15.4201 27.2514 15.6153L29.2286 15.3141ZM27.5692 17.2593C27.1228 17.5057 26.6485 17.6531 26.2525 17.7642C25.8174 17.8862 25.5112 17.9575 25.2138 18.0663C24.9332 18.169 24.7926 18.2628 24.7162 18.3443C24.6606 18.4036 24.5861 18.5102 24.566 18.776L22.5717 18.6253C22.6218 17.9625 22.852 17.4089 23.2565 16.977C23.6403 16.5673 24.1151 16.3387 24.5263 16.1882C24.9206 16.0439 25.3824 15.9311 25.7123 15.8385C26.0812 15.735 26.3689 15.6373 26.6025 15.5084L27.5692 17.2593ZM24.5222 18.3987C24.5969 18.6344 24.7939 18.8636 25.223 19.1142C25.6844 19.3836 26.1594 19.5459 26.7601 19.8126L25.9486 21.6406C25.5362 21.4575 24.8012 21.1839 24.2145 20.8413C23.5956 20.4799 22.9064 19.921 22.6155 19.0026L24.5222 18.3987ZM26.8463 19.856C27.7709 20.3785 28.8244 20.4483 29.963 20.2275C31.1121 20.0046 32.2722 19.4993 33.3309 18.9628L34.235 20.7468C33.1277 21.308 31.7694 21.9144 30.3438 22.1909C28.9075 22.4695 27.3297 22.4264 25.8624 21.5972L26.8463 19.856ZM33.0749 19.1486C33.497 18.7254 34.0418 18.6684 34.4525 18.7577C34.8435 18.8427 35.203 19.0703 35.4453 19.3831L33.8642 20.6079C33.91 20.667 33.9601 20.6974 34.0276 20.7121C34.0692 20.7211 34.1396 20.7283 34.2285 20.7072C34.3237 20.6847 34.4175 20.6346 34.491 20.561L33.0749 19.1486ZM35.6542 20.0279C35.5786 22.3615 36.4222 24.3335 37.4765 26.4385C38.5036 28.4892 39.7786 30.7367 40.174 33.3529L38.1964 33.6518C37.8604 31.4283 36.7858 29.5255 35.6883 27.3342C34.618 25.1972 33.5622 22.8355 33.6553 19.9631L35.6542 20.0279ZM40.168 33.3179C40.4277 34.7016 40.1127 35.8803 39.7788 36.8819C39.4275 37.9355 39.1003 38.7061 39.0285 39.6034L37.0349 39.4441C37.1319 38.2305 37.5925 37.116 37.8814 36.2494C38.1877 35.3308 38.3651 34.5542 38.2023 33.6867L40.168 33.3179ZM39.0314 39.5476C39.0305 39.5862 39.0323 39.5102 38.9834 39.427C38.9777 39.4174 38.9767 39.4183 39.0226 39.4784C39.061 39.5287 39.1269 39.6141 39.1969 39.7206C39.5041 40.1881 39.7687 40.8714 39.9428 42.2394L37.9589 42.492C37.8047 41.2811 37.6004 40.9329 37.5254 40.8189C37.4999 40.78 37.4757 40.7481 37.4329 40.6921C37.3977 40.6459 37.3245 40.5515 37.2592 40.4405C37.091 40.1543 37.0236 39.8507 37.032 39.4999L39.0314 39.5476ZM39.9085 42.0778C39.8907 42.0185 39.8992 42.0711 40.036 42.256C40.1511 42.4115 40.3137 42.603 40.5101 42.8051C40.9131 43.2198 41.3864 43.6057 41.7867 43.8145L40.8616 45.5877C40.202 45.2436 39.5592 44.6964 39.0758 44.1989C38.8289 43.9449 38.6058 43.6855 38.4283 43.4456C38.2724 43.235 38.0815 42.9475 37.9932 42.6537L39.9085 42.0778ZM41.6907 43.7708C42.495 44.0877 43.479 44.1975 44.5617 44.1692L44.6139 46.1685C43.3937 46.2004 42.1099 46.0856 40.9575 45.6315L41.6907 43.7708ZM44.6139 44.1692C45.6963 44.1975 46.6803 44.0877 47.4845 43.7708L48.2178 45.6315C47.0653 46.0856 45.7816 46.2004 44.5617 46.1685L44.6139 44.1692ZM47.3886 43.8145C47.7889 43.6057 48.2623 43.2198 48.6651 42.8052C48.8614 42.6031 49.0238 42.4117 49.1387 42.2564C49.2754 42.0715 49.2831 42.0197 49.265 42.0804L51.1818 42.6511C51.0939 42.9463 50.9026 43.2346 50.747 43.4451C50.5696 43.6853 50.3464 43.9448 50.0996 44.1988C49.6161 44.6964 48.9732 45.2436 48.3137 45.5877L47.3886 43.8145ZM49.2315 42.239C49.4062 40.871 49.6711 40.1877 49.9784 39.7203C50.0484 39.6138 50.1144 39.5285 50.1527 39.4783C50.1986 39.4182 50.1976 39.4172 50.1919 39.4269C50.1429 39.5102 50.1448 39.5862 50.1438 39.5476L52.1433 39.4999C52.1517 39.8507 52.0843 40.1543 51.916 40.4406C51.8507 40.5517 51.7774 40.646 51.7422 40.6922C51.6993 40.7483 51.6751 40.7802 51.6495 40.8191C51.5745 40.9333 51.37 41.2816 51.2153 42.4924L49.2315 42.239ZM50.1468 39.6036C50.0749 38.7062 49.7475 37.9355 49.3963 36.8819C49.0624 35.8803 48.7475 34.7017 49.0068 33.318L50.9726 33.6866C50.81 34.5541 50.9874 35.3308 51.2936 36.2494C51.5826 37.116 52.0432 38.2305 52.1404 39.4439L50.1468 39.6036ZM49.001 33.3528C49.3965 30.7367 50.6715 28.4892 51.6985 26.4386C52.7527 24.3335 53.5962 22.3616 53.5204 20.0279L55.5193 19.963C55.6126 22.8355 54.5569 25.1972 53.4868 27.3341C52.3893 29.5255 51.3147 31.4283 50.9785 33.6518L49.001 33.3528ZM53.7308 19.3811C53.9732 19.0698 54.3322 18.8426 54.7232 18.7577C55.1337 18.6685 55.6785 18.7253 56.1007 19.1486L54.6846 20.561C54.7581 20.6347 54.852 20.6847 54.9471 20.7072C55.036 20.7283 55.1063 20.7211 55.1477 20.7121C55.2149 20.6975 55.264 20.6675 55.3089 20.6098L53.7308 19.3811ZM55.8447 18.9628C56.9034 19.4993 58.0634 20.0046 59.2124 20.2275C60.3509 20.4483 61.4044 20.3785 62.3294 19.8559L63.3131 21.5973C61.8455 22.4264 60.2678 22.4695 58.8316 22.1909C57.406 21.9144 56.0479 21.3079 54.9406 20.7468L55.8447 18.9628ZM62.4154 19.8127C63.0161 19.5459 63.4909 19.3837 63.9523 19.1142C64.3815 18.8636 64.5787 18.6343 64.6535 18.3984L66.56 19.0028C66.2689 19.9211 65.5798 20.4799 64.9608 20.8413C64.3742 21.1839 63.6392 21.4575 63.2271 21.6405L62.4154 19.8127ZM64.6096 18.7763C64.5894 18.5105 64.5148 18.4039 64.4592 18.3444C64.3827 18.2628 64.2419 18.169 63.9613 18.0663C63.6639 17.9575 63.3577 17.8862 62.9227 17.7642C62.5267 17.6531 62.0525 17.5056 61.6063 17.2592L62.5733 15.5085C62.8066 15.6374 63.0942 15.7351 63.463 15.8385C63.7928 15.9311 64.2545 16.0439 64.6488 16.1882C65.0599 16.3387 65.5347 16.5673 65.9186 16.9769C66.3231 17.4087 66.5535 17.9621 66.6039 18.6249L64.6096 18.7763ZM61.616 17.2645C61.2556 17.0706 60.9105 16.8367 60.6481 16.6247C60.5195 16.5208 60.3876 16.4035 60.2791 16.2833C60.2271 16.2255 60.1555 16.1399 60.093 16.0338C60.0596 15.9772 59.8893 15.6954 59.9459 15.3167L61.9239 15.6126C61.9531 15.4177 61.9154 15.2642 61.8907 15.187C61.8643 15.1045 61.8324 15.0462 61.8156 15.0176C61.7827 14.9619 61.7568 14.9355 61.7645 14.944C61.7755 14.9562 61.819 14.9995 61.9051 15.0691C62.0721 15.204 62.3136 15.3687 62.5635 15.5032L61.616 17.2645ZM60.6364 14.5103C62.9036 13.801 64.9993 12.5879 67.0757 11.1485C68.113 10.4293 69.1351 9.66128 70.1691 8.87698C71.1982 8.09648 72.2429 7.29708 73.3023 6.53506C77.5402 3.48672 82.2355 0.867111 88.3778 1.78551L88.0821 3.76352C82.7439 2.96536 78.6036 5.18547 74.4702 8.15867C73.4367 8.90203 72.4175 9.68188 71.3777 10.4705C70.3429 11.2553 69.291 12.0463 68.2152 12.7921C66.0653 14.2825 63.7782 15.623 61.2335 16.4191L60.6364 14.5103ZM88.0559 1.78978C87.9557 1.80749 87.9363 1.86797 88.0036 1.78263C88.0369 1.74031 88.0758 1.68196 88.1279 1.59499C88.1539 1.55168 88.1791 1.50835 88.2092 1.45661C88.2377 1.4077 88.2709 1.35091 88.3056 1.29445L90.0102 2.34053C89.9533 2.43334 89.7663 2.77705 89.5745 3.02039C89.3535 3.30095 88.9824 3.65699 88.4041 3.75924L88.0559 1.78978ZM88.1732 1.64349C88.1738 1.63972 88.1743 1.63729 88.1719 1.62768C88.1684 1.61454 88.1579 1.58518 88.1283 1.54052C88.064 1.44343 87.9493 1.33424 87.8126 1.24309L88.922 -0.421009C89.2073 -0.230801 89.5425 0.0541428 89.7953 0.435399C90.0547 0.826676 90.2533 1.36523 90.1426 1.99149L88.1732 1.64349Z" fill="#FF0330" mask="url(#path-2-inside-1_2_21)"/>
</svg>
